<svg width="240" height="474" viewBox="0 0 240 474" fill="none" xmlns="http://www.w3.org/2000/svg">
<path d="M86.2599 372.696C85.8514 368.021 89.5364 364 94.2295 364H103.991C108.784 364 112.502 368.186 111.935 372.946L108 406V455.691C108 457.769 108.875 459.751 110.41 461.151C115.397 465.698 112.179 474 105.431 474H93.7655C87.1 474 83.5787 466.11 88.03 461.149C89.2984 459.735 90 457.902 90 456.003V415.5L86.2599 372.696Z" fill="black"/>
<path d="M124.733 374.077C124.08 369.275 127.814 365 132.66 365H142.32C146.995 365 150.674 368.991 150.294 373.651L147 414V454.754C147 456.871 147.843 458.901 149.343 460.395C154.374 465.407 150.825 474 143.723 474H132.941C126.269 474 122.528 466.313 126.646 461.063L127.295 460.235C128.4 458.827 129 457.089 129 455.298V405.5L124.733 374.077Z" fill="black"/>
<path d="M96.5206 196H141.313L189 373H57L96.5206 196Z" fill="#F05050"/>
<path d="M110.5 324.5L175.192 323.559L188.192 372.091L129.616 372.091L110.5 324.5Z" fill="url(#paint0_linear_94_135)"/>
<path d="M99.0497 196.674L141.572 196.062L176 325.282L97.0691 325.282L99.0497 196.674Z" fill="url(#paint1_linear_94_135)"/>
<path d="M38 28L96 178.157C96 178.157 50.2821 209.304 26.9919 178.157C3.70171 147.009 38 28 38 28Z" fill="#530404"/>
<path d="M196.5 27.5L140 173.215C140 173.215 191.042 204.231 209.802 173.215C228.561 142.2 196.5 27.5 196.5 27.5Z" fill="#530404"/>
<ellipse cx="119.5" cy="106.5" rx="68.5" ry="85.5" fill="url(#paint2_radial_94_135)"/>
<path d="M65 112C65 112 84.5455 82.75 105 112" stroke="black" stroke-width="2"/>
<circle cx="85.5" cy="113.5" r="8.5" fill="black"/>
<path d="M131 111C131 111 150.545 81.75 171 111" stroke="black" stroke-width="2"/>
<circle cx="151.5" cy="112.5" r="8.5" fill="black"/>
<path d="M38 28.6592L65.3684 0H117.474H165.895L198 28.6592V90H117.474H87L77 47.5L67.5 90H38V28.6592Z" fill="url(#paint3_radial_94_135)"/>
<path d="M121 122C121 122 96.25 148.597 121 149" stroke="black" stroke-width="2"/>
<line x1="105" y1="171" x2="131" y2="171" stroke="black" stroke-width="2"/>
<path d="M131.274 459.604C136.682 454.692 140.171 454.906 145.231 459.604C150.29 464.302 148.337 466 145.231 469C142.125 472 134.458 471.614 131.274 469C128.091 466.386 125.866 464.516 131.274 459.604Z" fill="url(#paint4_radial_94_135)"/>
<path d="M93.2741 459.604C98.6823 454.692 102.171 454.906 107.231 459.604C112.29 464.302 110.337 466 107.231 469C104.125 472 96.4575 471.614 93.2741 469C90.0908 466.386 87.866 464.516 93.2741 459.604Z" fill="url(#paint5_radial_94_135)"/>
<rect x="198.321" y="268.622" width="20" height="70" rx="10" transform="rotate(150 198.321 268.622)" fill="#F05050"/>
<rect x="196.484" y="265.441" width="13" height="62.655" rx="6.5" transform="rotate(150 196.484 265.441)" fill="url(#paint6_linear_94_135)"/>
<rect x="57.3206" y="278.622" width="20" height="70" rx="10" transform="rotate(-150 57.3206 278.622)" fill="#F05050"/>
<rect x="59.1569" y="275.441" width="13" height="62.655" rx="6.5" transform="rotate(-150 59.1569 275.441)" fill="url(#paint7_linear_94_135)"/>
<circle cx="12.5" cy="334.5" r="12.5" fill="#FFEDD8"/>
<rect x="229.321" y="322.622" width="20" height="70" rx="10" transform="rotate(150 229.321 322.622)" fill="#F05050"/>
<rect x="227.484" y="319.441" width="13" height="62.655" rx="6.5" transform="rotate(150 227.484 319.441)" fill="url(#paint8_linear_94_135)"/>
<circle cx="227.5" cy="338.5" r="12.5" fill="#FFEDD8"/>
<rect x="28.3206" y="327.622" width="20" height="70" rx="10" transform="rotate(-150 28.3206 327.622)" fill="#F05050"/>
<rect x="30.1569" y="324.441" width="13" height="62.655" rx="6.5" transform="rotate(-150 30.1569 324.441)" fill="url(#paint9_linear_94_135)"/>
<defs>
<linearGradient id="paint0_linear_94_135" x1="157.594" y1="327.351" x2="123.485" y2="342.074" gradientUnits="userSpaceOnUse">
<stop stop-color="#F05050"/>
<stop offset="0.504808" stop-color="#F59595"/>
<stop offset="1" stop-color="#F05050"/>
</linearGradient>
<linearGradient id="paint1_linear_94_135" x1="153.895" y1="255.644" x2="106.844" y2="260.386" gradientUnits="userSpaceOnUse">
<stop stop-color="#F05050"/>
<stop offset="0.5" stop-color="#F59595"/>
<stop offset="1" stop-color="#F05050"/>
</linearGradient>
<radialGradient id="paint2_radial_94_135" cx="0" cy="0" r="1" gradientUnits="userSpaceOnUse" gradientTransform="translate(119.5 106.5) rotate(90) scale(85.5 68.5)">
<stop stop-color="#FFEDD8"/>
<stop offset="1" stop-color="#E8C9A5"/>
</radialGradient>
<radialGradient id="paint3_radial_94_135" cx="0" cy="0" r="1" gradientUnits="userSpaceOnUse" gradientTransform="translate(142 45) rotate(118.072) scale(51 90.6667)">
<stop stop-color="#785C5C"/>
<stop offset="1" stop-color="#530404"/>
</radialGradient>
<radialGradient id="paint4_radial_94_135" cx="0" cy="0" r="1" gradientUnits="userSpaceOnUse" gradientTransform="translate(138.125 462.5) rotate(90) scale(6.5 10)">
<stop stop-color="#5D5969"/>
<stop offset="0.975962"/>
</radialGradient>
<radialGradient id="paint5_radial_94_135" cx="0" cy="0" r="1" gradientUnits="userSpaceOnUse" gradientTransform="translate(100.125 462.5) rotate(90) scale(6.5 10)">
<stop stop-color="#5D5969"/>
<stop offset="0.975962"/>
</radialGradient>
<linearGradient id="paint6_linear_94_135" x1="209.484" y1="296.769" x2="196.484" y2="296.769" gradientUnits="userSpaceOnUse">
<stop offset="0.15" stop-color="#F05050"/>
<stop offset="0.5" stop-color="#F08484"/>
<stop offset="0.85" stop-color="#F05050"/>
</linearGradient>
<linearGradient id="paint7_linear_94_135" x1="72.1569" y1="306.769" x2="59.1569" y2="306.769" gradientUnits="userSpaceOnUse">
<stop offset="0.15" stop-color="#F05050"/>
<stop offset="0.5" stop-color="#F08484"/>
<stop offset="0.85" stop-color="#F05050"/>
</linearGradient>
<linearGradient id="paint8_linear_94_135" x1="240.484" y1="350.769" x2="227.484" y2="350.769" gradientUnits="userSpaceOnUse">
<stop offset="0.15" stop-color="#F05050"/>
<stop offset="0.5" stop-color="#F08484"/>
<stop offset="0.85" stop-color="#F05050"/>
</linearGradient>
<linearGradient id="paint9_linear_94_135" x1="43.1569" y1="355.769" x2="30.1569" y2="355.769" gradientUnits="userSpaceOnUse">
<stop offset="0.15" stop-color="#F05050"/>
<stop offset="0.5" stop-color="#F08484"/>
<stop offset="0.85" stop-color="#F05050"/>
</linearGradient>
</defs>
</svg>
